:FULLY-SPECIFIED
:FORCE-ALL-JOINTS-BE-3DOF
:DEGREES
544
root 5.81343 16.4234 -4.60277 -112.952 87.7047 -118.573
lfemur -21.4583 -5.22751 -20.7066
ltibia 46.4239 0 0
lfoot -28.2517 1.80595 0
ltoes 7.93188 0 0
rfemur -52.4647 -1.50492 11.5565
rtibia 62.3629 0 0
rfoot 7.80414 9.89423 0
rtoes -19.126 0 0
lowerback 5.66385 -0.74125 -3.36547
upperback 1.22726 -1.08385 1.82929
thorax -1.77841 -0.53814 3.84266
lowerneck -7.40323 -11.5925 -3.03362
upperneck 11.1385 -15.7614 4.10883
head 5.16308 -7.57556 0.637218
lclavicle -1.81226e-15 -2.66372e-15 0
lhumerus -37.3419 -30.8748 102.118
lradius 54.9602 0 0
lwrist 14.0049 0 0
lhand -4.46069 -0.788737 0
lfingers 7.12502 0 0
lthumb 21.2603 27.4617 0
rclavicle -1.81226e-15 -2.66372e-15 0
rhumerus -7.50988 31.3454 -83.1003
rradius 114.68 0 0
rwrist -10.5533 0 0
rhand -10.4186 -16.2489 0
rfingers 7.12502 0 0
rthumb 15.5404 -765.032 0
545
root 5.82227 16.4226 -4.57743 -112.273 87.6949 -117.889
lfemur -21.3699 -4.90403 -20.6694
ltibia 46.3933 0 0
lfoot -28.3237 2.03224 0
ltoes 7.76809 0 0
rfemur -52.3061 -1.71025 11.6447
rtibia 62.1959 0 0
rfoot 7.80062 9.87393 0
rtoes -19.1943 0 0
lowerback 5.63801 -0.75191 -3.41449
upperback 1.24285 -1.09982 1.83439
thorax -1.74522 -0.546926 3.87603
lowerneck -7.36208 -11.6226 -3.04948
upperneck 11.1707 -15.8087 4.16057
head 5.17371 -7.59568 0.651988
lclavicle -1.84594e-15 -2.53782e-15 0
lhumerus -37.073 -30.7997 101.763
lradius 54.9261 0 0
lwrist 14.2284 0 0
lhand -4.7706 -0.823546 0
lfingers 7.12502 0 0
lthumb 20.9628 27.4605 0
rclavicle -1.84594e-15 -2.53782e-15 0
rhumerus -6.84005 31.0348 -82.8926
rradius 115.072 0 0
rwrist -11.2676 0 0
rhand -10.7554 -16.3192 0
rfingers 7.12502 0 0
rthumb 15.2162 -765.128 0
546
root 5.83111 16.4217 -4.55209 -111.594 87.6851 -117.205
lfemur -21.2815 -4.58054 -20.6322
ltibia 46.3626 0 0
lfoot -28.3958 2.25853 0
ltoes 7.6043 0 0
rfemur -52.1474 -1.91557 11.7329
rtibia 62.0289 0 0
rfoot 7.79711 9.85363 0
rtoes -19.2627 0 0
lowerback 5.61218 -0.762569 -3.46351
upperback 1.25844 -1.11578 1.83949
thorax -1.71204 -0.555711 3.9094
lowerneck -7.32092 -11.6527 -3.06534
upperneck 11.203 -15.8559 4.2123
head 5.18433 -7.61581 0.666757
lclavicle -1.87962e-15 -2.41192e-15 0
lhumerus -36.8041 -30.7246 101.409
lradius 54.8921 0 0
lwrist 14.4518 0 0
lhand -5.08051 -0.858356 0
lfingers 7.12502 0 0
lthumb 20.6653 27.4593 0
rclavicle -1.87962e-15 -2.41192e-15 0
rhumerus -6.17023 30.7243 -82.6848
rradius 115.465 0 0
rwrist -11.9819 0 0
rhand -11.0922 -16.3895 0
rfingers 7.12502 0 0
rthumb 14.892 -765.223 0
547
root 5.83995 16.4208 -4.52675 -110.916 87.6753 -116.521
lfemur -21.193 -4.25705 -20.595
ltibia 46.3319 0 0
lfoot -28.4678 2.48481 0
ltoes 7.44051 0 0
rfemur -51.9888 -2.12089 11.8211
rtibia 61.862 0 0
rfoot 7.79359 9.83333 0
rtoes -19.3311 0 0
lowerback 5.58634 -0.773228 -3.51253
upperback 1.27403 -1.13175 1.84459
thorax -1.67886 -0.564496 3.94278
lowerneck -7.27977 -11.6827 -3.0812
upperneck 11.2352 -15.9032 4.26403
head 5.19496 -7.63593 0.681527
lclavicle -1.9133e-15 -2.28602e-15 0
lhumerus -36.5352 -30.6495 101.054
lradius 54.8581 0 0
lwrist 14.6753 0 0
lhand -5.39043 -0.893165 0
lfingers 7.12502 0 0
lthumb 20.3678 27.4581 0
rclavicle -1.9133e-15 -2.28602e-15 0
rhumerus -5.5004 30.4137 -82.477
rradius 115.858 0 0
rwrist -12.6961 0 0
rhand -11.429 -16.4597 0
rfingers 7.12502 0 0
rthumb 14.5679 -765.318 0
548
root 5.84879 16.42 -4.5014 -110.237 87.6655 -115.837
lfemur -21.1046 -3.93356 -20.5577
ltibia 46.3013 0 0
lfoot -28.5399 2.7111 0
ltoes 7.27672 0 0
rfemur -51.8302 -2.32621 11.9094
rtibia 61.695 0 0
rfoot 7.79008 9.81304 0
rtoes -19.3995 0 0
lowerback 5.5605 -0.783888 -3.56156
upperback 1.28962 -1.14771 1.8497
thorax -1.64567 -0.573281 3.97615
lowerneck -7.23861 -11.7128 -3.09707
upperneck 11.2674 -15.9505 4.31576
head 5.20559 -7.65605 0.696297
lclavicle -1.94699e-15 -2.16013e-15 0
lhumerus -36.2662 -30.5743 100.699
lradius 54.824 0 0
lwrist 14.8987 0 0
lhand -5.70034 -0.927974 0
lfingers 7.12502 0 0
lthumb 20.0703 27.457 0
rclavicle -1.94699e-15 -2.16013e-15 0
rhumerus -4.83057 30.1031 -82.2692
rradius 116.251 0 0
rwrist -13.4104 0 0
rhand -11.7658 -16.53 0
rfingers 7.12502 0 0
rthumb 14.2437 -765.413 0
549
root 5.85763 16.4191 -4.47606 -109.558 87.6557 -115.153
lfemur -21.0162 -3.61007 -20.5205
ltibia 46.2706 0 0
lfoot -28.612 2.93739 0
ltoes 7.11293 0 0
rfemur -51.6715 -2.53153 11.9976
rtibia 61.528 0 0
rfoot 7.78657 9.79274 0
rtoes -19.4679 0 0
lowerback 5.53467 -0.794547 -3.61058
upperback 1.30521 -1.16368 1.8548
thorax -1.61249 -0.582066 4.00952
lowerneck -7.19745 -11.7429 -3.11293
upperneck 11.2996 -15.9977 4.36749
head 5.21621 -7.67618 0.711066
lclavicle -1.98067e-15 -2.03423e-15 0
lhumerus -35.9973 -30.4992 100.344
lradius 54.79 0 0
lwrist 15.1221 0 0
lhand -6.01025 -0.962784 0
lfingers 7.12502 0 0
lthumb 19.7728 27.4558 0
rclavicle -1.98067e-15 -2.03423e-15 0
rhumerus -4.16075 29.7926 -82.0614
rradius 116.644 0 0
rwrist -14.1247 0 0
rhand -12.1026 -16.6003 0
rfingers 7.12502 0 0
rthumb 13.9196 -765.508 0
550
root 5.86647 16.4183 -4.45072 -108.879 87.6459 -114.469
lfemur -20.9278 -3.28659 -20.4833
ltibia 46.24 0 0
lfoot -28.684 3.16368 0
ltoes 6.94914 0 0
rfemur -51.5129 -2.73686 12.0858
rtibia 61.361 0 0
rfoot 7.78305 9.77244 0
rtoes -19.5362 0 0
lowerback 5.50883 -0.805207 -3.6596
upperback 1.3208 -1.17964 1.8599
thorax -1.57931 -0.590852 4.04289
lowerneck -7.1563 -11.773 -3.12879
upperneck 11.3318 -16.045 4.41923
head 5.22684 -7.6963 0.725836
lclavicle -2.01435e-15 -1.90833e-15 0
lhumerus -35.7284 -30.4241 99.9894
lradius 54.7559 0 0
lwrist 15.3456 0 0
lhand -6.32016 -0.997593 0
lfingers 7.12502 0 0
lthumb 19.4753 27.4546 0
rclavicle -2.01435e-15 -1.90833e-15 0
rhumerus -3.49092 29.482 -81.8537
rradius 117.036 0 0
rwrist -14.839 0 0
rhand -12.4394 -16.6706 0
rfingers 7.12502 0 0
rthumb 13.5954 -765.604 0
551
root 5.87532 16.4174 -4.42537 -108.2 87.636 -113.785
lfemur -20.8393 -2.9631 -20.4461
ltibia 46.2093 0 0
lfoot -28.7561 3.38997 0
ltoes 6.78535 0 0
rfemur -51.3542 -2.94218 12.174
rtibia 61.1941 0 0
rfoot 7.77954 9.75214 0
rtoes -19.6046 0 0
lowerback 5.48299 -0.815866 -3.70863
upperback 1.33639 -1.19561 1.865
thorax -1.54612 -0.599637 4.07626
lowerneck -7.11514 -11.803 -3.14465
upperneck 11.3641 -16.0922 4.47096
head 5.23746 -7.71643 0.740606
lclavicle -2.04804e-15 -1.78244e-15 0
lhumerus -35.4595 -30.349 99.6346
lradius 54.7219 0 0
lwrist 15.569 0 0
lhand -6.63008 -1.0324 0
lfingers 7.12502 0 0
lthumb 19.1778 27.4535 0
rclavicle -2.04804e-15 -1.78244e-15 0
rhumerus -2.82109 29.1715 -81.6459
rradius 117.429 0 0
rwrist -15.5533 0 0
rhand -12.7762 -16.7408 0
rfingers 7.12502 0 0
rthumb 13.2713 -765.699 0
552
root 5.88416 16.4166 -4.40003 -107.521 87.6262 -113.101
lfemur -20.7509 -2.63961 -20.4089
ltibia 46.1786 0 0
lfoot -28.8281 3.61626 0
ltoes 6.62156 0 0
rfemur -51.1956 -3.1475 12.2622
rtibia 61.0271 0 0
rfoot 7.77602 9.73184 0
rtoes -19.673 0 0
lowerback 5.45715 -0.826525 -3.75765
upperback 1.35198 -1.21157 1.8701
thorax -1.51294 -0.608422 4.10963
lowerneck -7.07399 -11.8331 -3.16051
upperneck 11.3963 -16.1395 4.52269
head 5.24809 -7.73655 0.755375
lclavicle -2.08172e-15 -1.65654e-15 0
lhumerus -35.1906 -30.2739 99.2798
lradius 54.6878 0 0
lwrist 15.7925 0 0
lhand -6.93999 -1.06721 0
lfingers 7.12502 0 0
lthumb 18.8803 27.4523 0
rclavicle -2.08172e-15 -1.65654e-15 0
rhumerus -2.15127 28.8609 -81.4381
rradius 117.822 0 0
rwrist -16.2676 0 0
rhand -13.113 -16.8111 0
rfingers 7.12502 0 0
rthumb 12.9471 -765.794 0
553
root 5.893 16.4157 -4.37469 -106.842 87.6164 -112.416
lfemur -20.6625 -2.31612 -20.3717
ltibia 46.148 0 0
lfoot -28.9002 3.84255 0
ltoes 6.45777 0 0
rfemur -51.0369 -3.35282 12.3504
rtibia 60.8601 0 0
rfoot 7.77251 9.71154 0
rtoes -19.7414 0 0
lowerback 5.43132 -0.837185 -3.80667
upperback 1.36756 -1.22754 1.87521
thorax -1.47976 -0.617207 4.143
lowerneck -7.03283 -11.8632 -3.17637
upperneck 11.4285 -16.1867 4.57442
head 5.25871 -7.75668 0.770145
lclavicle -2.1154e-15 -1.53064e-15 0
lhumerus -34.9216 -30.1988 98.925
lradius 54.6538 0 0
lwrist 16.0159 0 0
lhand -7.2499 -1.10202 0
lfingers 7.12502 0 0
lthumb 18.5828 27.4511 0
rclavicle -2.1154e-15 -1.53064e-15 0
rhumerus -1.48144 28.5504 -81.2303
rradius 118.215 0 0
rwrist -16.9819 0 0
rhand -13.4498 -16.8814 0
rfingers 7.12502 0 0
rthumb 12.6229 -765.889 0
554
root 5.90184 16.4149 -4.34934 -106.164 87.6066 -111.732
lfemur -20.5741 -1.99264 -20.3344
ltibia 46.1173 0 0
lfoot -28.9723 4.06883 0
ltoes 6.29398 0 0
rfemur -50.8783 -3.55815 12.4386
rtibia 60.6932 0 0
rfoot 7.76899 9.69124 0
rtoes -19.8097 0 0
lowerback 5.40548 -0.847844 -3.8557
upperback 1.38315 -1.2435 1.88031
thorax -1.44657 -0.625993 4.17638
lowerneck -6.99168 -11.8933 -3.19223
upperneck 11.4607 -16.234 4.62615
head 5.26934 -7.7768 0.784914
lclavicle -2.14909e-15 -1.40475e-15 0
lhumerus -34.6527 -30.1237 98.5702
lradius 54.6197 0 0
lwrist 16.2394 0 0
lhand -7.55981 -1.13683 0
lfingers 7.12502 0 0
lthumb 18.2853 27.4499 0
rclavicle -2.14909e-15 -1.40475e-15 0
rhumerus -0.811613 28.2398 -81.0225
rradius 118.608 0 0
rwrist -17.6962 0 0
rhand -13.7866 -16.9517 0
rfingers 7.12502 0 0
rthumb 12.2988 -765.984 0
555
root 5.91068 16.414 -4.324 -105.485 87.5968 -111.048
lfemur -20.4856 -1.66915 -20.2972
ltibia 46.0866 0 0
lfoot -29.0443 4.29512 0
ltoes 6.13019 0 0
rfemur -50.7196 -3.76347 12.5268
rtibia 60.5262 0 0
rfoot 7.76548 9.67094 0
rtoes -19.8781 0 0
lowerback 5.37964 -0.858503 -3.90472
upperback 1.39874 -1.25947 1.88541
thorax -1.41339 -0.634778 4.20975
lowerneck -6.95052 -11.9233 -3.20809
upperneck 11.4929 -16.2812 4.67789
head 5.27996 -7.79693 0.799684
lclavicle -2.18277e-15 -1.27885e-15 0
lhumerus -34.3838 -30.0486 98.2154
lradius 54.5857 0 0
lwrist 16.4628 0 0
lhand -7.86973 -1.17164 0
lfingers 7.12502 0 0
lthumb 17.9878 27.4488 0
rclavicle -2.18277e-15 -1.27885e-15 0
rhumerus -0.141787 27.9293 -80.8148
rradius 119 0 0
rwrist -18.4105 0 0
rhand -14.1234 -17.0219 0
rfingers 7.12502 0 0
rthumb 11.9746 -766.08 0
556
root 5.91952 16.4131 -4.29866 -104.806 87.587 -110.364
lfemur -20.3972 -1.34566 -20.26
ltibia 46.056 0 0
lfoot -29.1164 4.52141 0
ltoes 5.96639 0 0
rfemur -50.561 -3.96879 12.615
rtibia 60.3592 0 0
rfoot 7.76196 9.65064 0
rtoes -19.9465 0 0
lowerback 5.3538 -0.869163 -3.95374
upperback 1.41433 -1.27543 1.89051
thorax -1.38021 -0.643563 4.24312
lowerneck -6.90937 -11.9534 -3.22395
upperneck 11.5251 -16.3285 4.72962
head 5.29059 -7.81705 0.814454
lclavicle -2.21645e-15 -1.15295e-15 0
lhumerus -34.1149 -29.9735 97.8606
lradius 54.5516 0 0
lwrist 16.6862 0 0
lhand -8.17964 -1.20645 0
lfingers 7.12502 0 0
lthumb 17.6903 27.4476 0
rclavicle -2.21645e-15 -1.15295e-15 0
rhumerus 0.52804 27.6187 -80.607
rradius 119.393 0 0
rwrist -19.1248 0 0
rhand -14.4602 -17.0922 0
rfingers 7.12502 0 0
rthumb 11.6505 -766.175 0
